# xmcd
#
# Track frame offsets:
#	150
#	25176
#	53197
#	81964
#	114038
#	136831
#	172062
#	196451
#	218483
#	228932
#	240017
#	264894
#
# Disc length: 3928 seconds
#
# Revision: 1
# Processed by: cddbd v1.5.2PL0 Copyright (c) Steve Scherf et al.
# Submitted via: audiograbber 1.83.01
#
DISCID=8d0f560c
DTITLE=Sbor Carmen - Na posledním vandru
DYEAR=1998
DGENRE=Country
TTITLE0=Na hradì Okori, Slepièka
TTITLE1=Osada, Kam tak spìchás, Na osadì hráli
TTITLE2=Pojd v chatu mou, Písen severu,Písen starého pistolníka, Montána
TTITLE3=Za tema kopeckama, Az se vratime, Ztracenka zpiva
TTITLE4=Kulhava kobyla, Pojd devce, Andilek Harvey Kid
TTITLE5=Malajka, Reka huci, Ja prijdu za tebou, Bessie
TTITLE6=Namornik, Houpy hou, Hvezdicka, To nase mladi, Hledam devce na nedeli
TTITLE7=Modrooka panenka, Prodam boudu
TTITLE8=Prijdte kamaradi
TTITLE9=Parohatej Charlie
TTITLE10=Az te tva divanka zklame, Az se vratis, Az svetylka vzplanou
TTITLE11=Co to jen ty trampy, Táboraku plapolej, Mam rad, Pisen domorodce(Lka U
TTITLE11=kulele), Niagara
EXTD=
EXTT0=
EXTT1=
EXTT2=
EXTT3=
EXTT4=
EXTT5=
EXTT6=
EXTT7=
EXTT8=
EXTT9=
EXTT10=
EXTT11=
PLAYORDER=
